<svg fill="none" height="18" viewBox="0 0 46 18" width="46" xmlns="http://www.w3.org/2000/svg"><path d="m1.37305 4.49023.03515 1.62598c.35742-.58594.80274-1.03125 1.33594-1.33594.5332-.31054 1.12207-.46582 1.7666-.46582 1.01953 0 1.77832.28711 2.27637.86133s.75 1.43555.75586 2.58399v6.24023h-1.0459v-6.24902c-.00586-.84961-.1875-1.48243-.54492-1.89844-.35156-.41602-.91699-.62402-1.69629-.62402-.65039 0-1.22754.20507-1.73145.61523-.49804.4043-.86718.95215-1.10742 1.64355v6.5127h-1.045896v-9.50977zm12.57715 9.68557c-.8086 0-1.541-.1992-2.1973-.5977-.6504-.3984-1.1572-.9521-1.5205-1.6611-.36326-.7149-.5449-1.5147-.5449-2.39942v-.37793c0-.91406.17578-1.73731.5273-2.46973.3575-.73242.8526-1.30664 1.4854-1.72265.6328-.42188 1.3184-.63282 2.0566-.63282 1.1543 0 2.0684.39551 2.7422 1.18653.6797.78515 1.0196 1.86035 1.0196 3.22558v.58887h-6.7852v.20215c0 1.07812.3076 1.97752.9228 2.69822.6211.7149 1.4004 1.0723 2.3379 1.0723.5625 0 1.0577-.1026 1.4854-.3076.4336-.2051.8262-.5332 1.1777-.9844l.6592.501c-.7734 1.1191-1.8955 1.6787-3.3662 1.6787zm-.1934-8.96486c-.791 0-1.4589.29004-2.0039.87011-.539.58008-.8672 1.35938-.9843 2.3379h5.7041v-.11426c-.0293-.91407-.2901-1.65821-.7823-2.23242-.4922-.57422-1.1367-.86133-1.9336-.86133zm8.7012 7.27736 2.7774-7.99807h1.1337l-4.0605 11.12697-.2109.4922c-.5215 1.1543-1.3272 1.7314-2.417 1.7314-.252 0-.5215-.041-.8086-.123l-.0088-.8701.5449.0527c.5156 0 .9316-.1289 1.248-.3867.3223-.252.5948-.6885.8174-1.3096l.4659-1.2832-3.586-9.43067h1.1514zm5.001-3.33107c0-1.47657.3281-2.65137.9844-3.52442.6621-.8789 1.5586-1.31836 2.6894-1.31836 1.2832 0 2.2617.50684 2.9356 1.52051v-5.33496h1.0459v13.5h-.9844l-.044-1.2656c-.6738.9609-1.664 1.4414-2.9707 1.4414-1.0957 0-1.9804-.4395-2.6543-1.3184-.6679-.8847-1.0019-2.0771-1.0019-3.57713zm1.0635.18457c0 1.2129.2431 2.1709.7295 2.874.4863.6973 1.1718 1.0459 2.0566 1.0459 1.2949 0 2.2148-.5713 2.7598-1.7138v-4.46489c-.545-1.23633-1.459-1.85449-2.7422-1.85449-.8848 0-1.5733.34863-2.0655 1.04589-.4921.69141-.7382 1.71387-.7382 3.06739zm15.3632 4.6582c-.1054-.2988-.1728-.7412-.2021-1.3271-.3691.4804-.8408.8525-1.415 1.1162-.5684.2578-1.1719.3867-1.8106.3867-.9141 0-1.6553-.2549-2.2236-.7647-.5625-.5097-.8438-1.1543-.8438-1.9336 0-.9257.3838-1.65816 1.1514-2.19723.7734-.53906 1.8486-.80859 3.2256-.80859h1.9072v-1.08106c0-.67968-.2109-1.21289-.6328-1.5996-.416-.39258-1.0254-.58887-1.8281-.58887-.7325 0-1.3389.1875-1.8194.5625-.4804.375-.7207.82617-.7207 1.35351l-1.0547-.00878c0-.75586.3516-1.40918 1.0547-1.95997.7032-.55664 1.5674-.83496 2.5928-.83496 1.0605 0 1.8955.2666 2.5049.79981.6152.52734.9316 1.26562.9492 2.21484v4.5c0 .9199.0967 1.6084.29 2.0654v.1055zm-3.3046-.7559c.7031 0 1.33-.1699 1.8808-.5097.5567-.3399.961-.794 1.2129-1.3623v-2.09183h-1.8809c-1.0488.01172-1.8691.20508-2.4609.58008-.5918.36915-.8877.87895-.8877 1.52925 0 .5333.1963.9756.5889 1.3272.3984.3516.914.5273 1.5469.5273z" fill="#0abf53"/></svg>